#!OML:ASF H:\Terrain\Patient Classification 1\Animal1\Tuesday\Animal1.ASF
:FULLY-SPECIFIED
:DEGREES
2376
root 10.62 16.935 32.7824 -241.974 77.2922 835.84
lowerback -2.86543 0.71583 -9.72931
upperback 2.80479 1.74873 -3.81952
thorax 4.40238 0.690064 1.57617
lowerneck -4.46937 0.583191 -3.11735
upperneck 37.9064 1.55056 7.07485
head 13.4191 1.9402 3.7841
rclavicle -7.71533e-015 -2.38542e-015
rhumerus -39.7742 1.85341 -83.0627
rradius 27.0624
rwrist -9.18271
rhand -15.5834 28.4093
rfingers 7.12502
rthumb 10.6021 -1.30324
lclavicle -7.71533e-015 -2.38542e-015
lhumerus -36.6542 6.15853 80.3721
lradius 44.5941
lwrist -25.8847
lhand 2.18749 40.6601
lfingers 7.12502
lthumb 27.6839 68.6426
rfemur -25.3529 -3.23813 6.74777
rtibia 62.7733
rfoot -11.8526 -16.5116
rtoes 24.7891
lfemur 0.204476 -19.8568 -42.9352
ltibia -3.37934e-014
lfoot 1.10475 17.6265
ltoes 0.317916
2377
root 10.6676 16.9693 32.8242 -222.525 81.1851 853.245
lowerback -4.03731 0.730382 -5.52846
upperback 1.65348 1.40852 -2.07873
thorax 3.90304 0.606218 1.05196
lowerneck -4.26481 0.529512 -3.34802
upperneck 38.2016 1.61975 6.9189
head 13.5064 1.93844 3.78851
rclavicle -5.79659e-015 3.52843e-014
rhumerus -40.5286 1.32403 -82.15
rradius 26.4997
rwrist -7.32236
rhand -13.3264 28.9688
rfingers 7.12502
rthumb 12.7786 -0.620171
lclavicle -5.79659e-015 3.52843e-014
lhumerus -37.3233 6.00869 80.8731
lradius 45.8899
lwrist -25.6876
lhand 2.51222 41.3266
lfingers 7.12502
lthumb 27.9944 69.2589
rfemur -27.9898 -1.26285 13.1638
rtibia 60.3468
rfoot -11.9615 -18.2639
rtoes 27.7564
lfemur -6.78633 -20.5508 -36.6936
ltibia 8.90552
lfoot -1.65722 18.2485
ltoes -4.20022
2378
root 10.6473 16.9977 32.9112 -178.73 82.4504 895.036
lowerback -2.32902 0.4949 -1.06482
upperback -1.21933 0.693301 -0.0553971
thorax 0.0448525 0.356275 0.556013
lowerneck -2.5226 0.365553 -3.13184
upperneck 39.1482 1.72843 6.44328
head 13.5774 2.03728 3.60002
rclavicle 5.51317e-015 2.16178e-015
rhumerus -43.5212 0.844036 -81.0874
rradius 25.8439
rwrist -4.32323
rhand -11.2389 31.0579
rfingers 7.12502
rthumb 14.7904 1.6057
lclavicle 5.51317e-015 2.16178e-015
lhumerus -40.5108 5.37208 81.0122
lradius 47.3408
lwrist -25.0562
lhand 2.08483 41.3823
lfingers 7.12502
lthumb 27.5857 69.3806
rfemur -30.8884 0.662896 20.341
rtibia 57.6488
rfoot -11.2816 -20.1339
rtoes 27.3429
lfemur -13.023 -21.4173 -28.6893
ltibia 14.671
lfoot -6.45904 17.329
ltoes 11.7228
2379
root 10.74 17.0065 32.9106 -177.76 81.8558 895.971
lowerback -2.5136 0.385387 -0.973832
upperback -1.14183 0.54735 -0.0156569
thorax 0.230498 0.281599 0.544286
lowerneck -2.9203 0.340673 -2.90498
upperneck 39.4468 1.71851 6.34619
head 13.8105 2.0609 3.55026
rclavicle 1.5249e-014 -8.4732e-015
rhumerus -43.5026 0.805224 -80.9385
rradius 25.2486
rwrist -3.35247
rhand -8.90781 32.3828
rfingers 7.12502
rthumb 17.0352 3.10978
lclavicle 1.5249e-014 -8.4732e-015
lhumerus -40.0228 5.10792 81.1605
lradius 47.8484
lwrist -24.8486
lhand 1.79552 40.7442
lfingers 7.12502
lthumb 27.309 68.7864
rfemur -30.8061 1.15116 20.4007
rtibia 55.1344
rfoot -11.9547 -20.2052
rtoes 29.2741
lfemur -15.1511 -22.2107 -28.5348
ltibia 19.6087
lfoot -11.3655 16.4698
ltoes 25.4107
2380
root 10.8346 17.015 32.9153 -178.033 81.2438 895.606
lowerback -2.5628 0.200524 -1.17384
upperback -1.21878 0.306262 0.105233
thorax 0.181446 0.163101 0.773807
lowerneck -3.21501 0.387463 -3.04034
upperneck 39.8313 1.84419 6.38329
head 14.0491 2.11222 3.64043
rclavicle 2.73919e-014 4.47266e-016
rhumerus -43.7291 1.34166 -81.0488
rradius 25.0277
rwrist -3.39322
rhand -4.76323 33.0179
rfingers 7.12502
rthumb 21.0209 4.13719
lclavicle 2.73919e-014 4.47266e-016
lhumerus -39.6734 5.21738 81.3133
lradius 48.1948
lwrist -25.0123
lhand 1.84892 40.3582
lfingers 7.12502
lthumb 27.3601 68.3923
rfemur -30.8104 1.89828 20.158
rtibia 52.8728
rfoot -13.6348 -20.5432
rtoes 33.805
lfemur -16.0068 -22.4572 -28.6764
ltibia 21.9283
lfoot -13.4471 15.9825
ltoes 27.5188
2381
root 10.9249 17.0195 32.9237 -179.979 80.6425 893.747
lowerback -2.34683 0.221949 -1.45131
upperback -1.27894 0.338504 -0.0964802
thorax -0.00217184 0.181659 0.722341
lowerneck -3.1411 0.166397 -2.79072
upperneck 39.8107 1.50436 6.3417
head 14.0502 2.00398 3.53916
rclavicle 1.75645e-014 -2.28602e-015
rhumerus -44.2229 0.508777 -80.8113
rradius 24.9921
rwrist -2.57023
rhand -9.76192 32.5406
rfingers 7.12502
rthumb 16.2129 3.19857
lclavicle 1.75645e-014 -2.28602e-015
lhumerus -39.3908 4.22003 81.5183
lradius 48.7442
lwrist -24.789
lhand 1.7809 40.373
lfingers 7.12502
lthumb 27.295 68.4174
rfemur -30.7499 2.78706 19.6419
rtibia 50.9985
rfoot -13.9677 -21.7089
rtoes 33.6685
lfemur -15.5074 -22.3855 -29.1937
ltibia 22.0215
lfoot -13.954 15.7271
ltoes 25.0285
2382
root 11.0119 17.0178 32.931 -180.884 79.9836 892.904
lowerback -2.20268 0.192008 -1.59226
upperback -1.27575 0.299356 -0.266656
thorax -0.0785268 0.162928 0.62558
lowerneck -2.79783 -0.0127245 -2.76607
upperneck 39.2652 1.11552 6.54736
head 13.7368 1.85258 3.53028
rclavicle 1.44507e-015 -1.84497e-015
rhumerus -44.5575 -0.00377488 -80.7797
rradius 24.9057
rwrist -1.99044
rhand -11.3082 32.4126
rfingers 7.12502
rthumb 14.7236 2.95551
lclavicle 1.44507e-015 -1.84497e-015
lhumerus -39.2793 3.49287 81.6051
lradius 49.6811
lwrist -24.6744
lhand 1.69392 40.2142
lfingers 7.12502
lthumb 27.2118 68.2716
rfemur -30.7311 3.29562 19.3982
rtibia 49.0137
rfoot -12.6891 -23.489
rtoes 31.8987
lfemur -15.0491 -22.4855 -29.5451
ltibia 22.0992
lfoot -13.8955 15.3929
ltoes 17.9797
2383
root 11.0982 17.0092 32.9399 -179.836 79.1883 893.703
lowerback -2.60832 -0.0103361 -1.56802
upperback -1.18952 0.037641 -0.195875
thorax 0.242633 0.0292992 0.679373
lowerneck -2.8338 -0.023418 -3.22328
upperneck 38.9252 0.982738 6.97532
head 13.5831 1.7673 3.74991
rclavicle 1.85809e-014 1.26725e-015
rhumerus -44.3128 -0.100684 -80.6948
rradius 24.5428
rwrist -1.23889
rhand -11.7269 32.2245
rfingers 7.12502
rthumb 14.3201 2.73835
lclavicle 1.85809e-014 1.26725e-015
lhumerus -39.1558 3.497 81.7554
lradius 50.6707
lwrist -24.8433
lhand 1.50596 40.319
lfingers 7.12502
lthumb 27.032 68.4044
rfemur -30.9707 3.83912 19.2523
rtibia 47.0991
rfoot -17.1428 -22.723
rtoes 41.9873
lfemur -14.7469 -22.6956 -29.4256
ltibia 21.6125
lfoot -12.6667 15.0297
ltoes 7.46692
2384
root 11.1993 16.9789 32.9435 -180.62 78.7482 892.863
lowerback -3.11935 -0.0198813 -1.63336
upperback -0.933429 0.0394994 -0.316008
thorax 0.790836 0.0242664 0.593486
lowerneck -3.19018 -0.047518 -3.11131
upperneck 39.0426 0.893993 7.10791
head 13.7215 1.76383 3.79161
rclavicle 1.54408e-015 -1.01877e-015
rhumerus -44.0062 -0.670853 -80.409
rradius 24.4494
rwrist 0.431926
rhand -11.0279 31.1252
rfingers 7.12502
rthumb 14.9936 1.68799
lclavicle 1.54408e-015 -1.01877e-015
lhumerus -38.7702 2.99956 81.9674
lradius 51.3622
lwrist -24.6748
lhand 1.57219 40.5487
lfingers 7.12502
lthumb 27.0954 68.6243
rfemur -30.8391 5.4459 18.3155
rtibia 45.6149
rfoot -27.2913 -13.9564
rtoes 56.9329
lfemur -13.1241 -22.8605 -29.6557
ltibia 19.1546
lfoot -11.3241 14.7546
ltoes 5.74481
2385
root 11.2935 17.0179 32.9417 -183.948 78.1481 889.807
lowerback -2.93057 -0.141571 -2.33409
upperback -0.7457 -0.102275 -0.481495
thorax 0.881499 -0.0495077 0.811358
lowerneck -3.40585 -0.114485 -2.84354
upperneck 39.107 0.913702 6.62681
head 13.8064 1.75168 3.55712
rclavicle 2.29581e-014 3.16813e-015
rhumerus -44.2283 0.459873 -81.424
rradius 25.0153
rwrist -1.72575
rhand -11.9329 29.793
rfingers 7.12502
rthumb 14.1217 0.292868
lclavicle 2.29581e-014 3.16813e-015
lhumerus -38.5381 2.81358 82.1231
lradius 51.9584
lwrist -24.6183
lhand 1.73726 40.4184
lfingers 7.12502
lthumb 27.2533 68.4693
rfemur -30.9436 5.48392 17.6924
rtibia 44.3683
rfoot -22.2471 -21.9165
rtoes 45.942
lfemur -10.8624 -22.8683 -30.5484
ltibia 16.3674
lfoot -10.6063 14.4096
ltoes 8.89879
2386
root 11.4911 17.0286 32.8892 -202.107 75.7901 873.29
lowerback -2.46851 -0.629604 -6.49604
upperback 0.200034 -0.583753 -1.51475
thorax 1.64408 -0.325895 2.05663
lowerneck -3.64906 -0.0196581 -2.78554
upperneck 39.355 1.15562 6.3769
head 13.9657 1.84189 3.49421
rclavicle -1.50207e-014 -8.54774e-015
rhumerus -44.5693 1.40339 -81.8434
rradius 25.4324
rwrist -3.09351
rhand -13.6092 29.6146
rfingers 7.12502
rthumb 12.5059 0.00880791
lclavicle -1.50207e-014 -8.54774e-015
lhumerus -38.4478 2.9759 82.3551
lradius 52.3511
lwrist -24.7347
lhand 1.46953 40.1814
lfingers 7.12502
lthumb 26.9972 68.2722
rfemur -28.708 3.35349 13.2264
rtibia 43.5202
rfoot -20.0715 -23.7388
rtoes 41.2559
lfemur -5.40852 -22.5636 -36.6162
ltibia 12.9965
lfoot -9.90566 13.0283
ltoes 12.5189
2387
root 11.597 17.0461 32.8628 -199.081 76.2411 875.919
lowerback -3.33048 -0.466012 -5.36773
upperback 0.128993 -0.353117 -1.3566
thorax 2.02773 -0.212935 1.59472
lowerneck -3.87999 -0.0727317 -2.86702
upperneck 39.7175 1.1077 6.47588
head 14.1935 1.83703 3.57772
rclavicle 3.138e-014 1.40143e-014
rhumerus -44.953 2.07553 -82.3525
rradius 25.7236
rwrist -4.91523
rhand -15.6104 29.7736
rfingers 7.12502
rthumb 10.576 0.0597364
lclavicle 3.138e-014 1.40143e-014
lhumerus -38.4133 2.49436 82.5216
lradius 52.7679
lwrist -24.527
lhand 1.19736 40.1098
lfingers 7.12502
lthumb 26.7367 68.2407
rfemur -29.3836 4.11064 14.0379
rtibia 42.1407
rfoot -15.5822 -27.4209
rtoes 32.882
lfemur -3.65739 -22.3764 -35.8309
ltibia 9.62153
lfoot -8.87547 11.2434
ltoes 24.7186
2388
root 11.6709 17.0297 32.8713 -199.184 76.0348 875.547
lowerback -3.29852 -0.314707 -5.50563
upperback -0.0593011 -0.149396 -1.49351
thorax 1.80206 -0.101698 1.54191
lowerneck -3.82377 -0.391589 -3.03488
upperneck 39.8485 0.633163 6.65754
head 14.2761 1.64224 3.64018
rclavicle -2.15883e-014 1.98288e-014
rhumerus -45.2117 1.86615 -82.4534
rradius 25.4176
rwrist -5.03449
rhand -15.2023 29.9092
rfingers 7.12502
rthumb 10.9696 0.215794
lclavicle -2.15883e-014 1.98288e-014
lhumerus -38.532 1.8485 82.5999
lradius 53.5189
lwrist -24.4804
lhand 1.18114 40.0877
lfingers 7.12502
lthumb 26.7212 68.2209
rfemur -29.8675 4.529 14.0838
rtibia 40.3974
rfoot 3.22521 -29.6597
rtoes -6.45582
lfemur -3.1803 -22.4565 -35.8149
ltibia 8.61388
lfoot -8.26429 9.78418
ltoes 32.853
